<mxfile host="65bd71144e">
    <diagram id="11zjGq34Q-Bbx6sBFsrv" name="Page-1">
        <mxGraphModel dx="989" dy="519" grid="1" gridSize="10" guides="1" tooltips="1" connect="1" arrows="1" fold="1" page="1" pageScale="1" pageWidth="850" pageHeight="1100" math="0" shadow="0">
            <root>
                <mxCell id="0"/>
                <mxCell id="1" parent="0"/>
                <mxCell id="2" value="" style="ellipse;whiteSpace=wrap;html=1;fillColor=none;fontSize=64;fontStyle=1;labelPosition=center;verticalLabelPosition=middle;align=left;verticalAlign=middle;strokeWidth=2;" vertex="1" parent="1">
                    <mxGeometry x="150" y="170" width="380" height="270" as="geometry"/>
                </mxCell>
                <mxCell id="4" value="" style="ellipse;whiteSpace=wrap;html=1;fillColor=none;strokeWidth=2;" vertex="1" parent="1">
                    <mxGeometry x="340" y="170" width="380" height="270" as="geometry"/>
                </mxCell>
                <mxCell id="5" value="A" style="text;html=1;align=center;verticalAlign=middle;whiteSpace=wrap;rounded=0;fontSize=48;fontStyle=0" vertex="1" parent="1">
                    <mxGeometry x="240" y="270" width="60" height="70" as="geometry"/>
                </mxCell>
                <mxCell id="6" value="&lt;font&gt;B&lt;/font&gt;" style="text;html=1;align=center;verticalAlign=middle;whiteSpace=wrap;rounded=0;fontSize=48;fontStyle=0" vertex="1" parent="1">
                    <mxGeometry x="570" y="270" width="60" height="70" as="geometry"/>
                </mxCell>
                <mxCell id="7" value="&lt;font&gt;A&amp;nbsp;&lt;span style=&quot;font-family: Arial, sans-serif; background-color: transparent; font-variant-numeric: normal; font-variant-east-asian: normal; font-variant-alternates: normal; font-variant-position: normal; font-variant-emoji: normal; vertical-align: baseline; white-space-collapse: preserve;&quot; id=&quot;docs-internal-guid-f5a295f0-7fff-9604-6995-6b2787199c86&quot;&gt;âˆ© B&lt;/span&gt;&lt;/font&gt;" style="text;html=1;align=center;verticalAlign=middle;whiteSpace=wrap;rounded=0;fontSize=48;fontStyle=0;fontColor=default;" vertex="1" parent="1">
                    <mxGeometry x="340" y="270" width="190" height="70" as="geometry"/>
                </mxCell>
                <mxCell id="8" value="&lt;font&gt;A&amp;nbsp;&lt;span style=&quot;font-family: Arial, sans-serif; background-color: transparent; font-variant-numeric: normal; font-variant-east-asian: normal; font-variant-alternates: normal; font-variant-position: normal; font-variant-emoji: normal; vertical-align: baseline; white-space-collapse: preserve;&quot; id=&quot;docs-internal-guid-f5a295f0-7fff-9604-6995-6b2787199c86&quot;&gt;&lt;span id=&quot;docs-internal-guid-2918fae9-7fff-6da2-7ce6-df3b0c8d137e&quot; style=&quot;background-color: transparent; font-variant-numeric: normal; font-variant-east-asian: normal; font-variant-alternates: normal; font-variant-position: normal; font-variant-emoji: normal; vertical-align: baseline;&quot;&gt;U&lt;/span&gt;&amp;nbsp;B&lt;/span&gt;&lt;/font&gt;" style="text;html=1;align=center;verticalAlign=middle;whiteSpace=wrap;rounded=0;fontSize=48;fontStyle=0;fontColor=default;" vertex="1" parent="1">
                    <mxGeometry x="340" y="110" width="190" height="70" as="geometry"/>
                </mxCell>
            </root>
        </mxGraphModel>
    </diagram>
</mxfile>